<svg 
 xmlns="http://www.w3.org/2000/svg"
 xmlns:xlink="http://www.w3.org/1999/xlink"
 width="1417px" height="500px">
<path fill-rule="evenodd"  fill="rgb(204, 102, 0)"
 d="M1106.295,365.873 L1067.990,333.898 C1067.990,333.898 1099.448,350.609 1115.367,352.410 C1125.161,353.518 1180.974,353.465 1230.879,353.6 C1262.354,336.136 1318.194,278.100 1296.604,233.583 C1273.681,186.316 1209.564,151.962 1209.564,151.962 C1209.564,151.962 1279.776,138.61 1325.251,165.560 C1357.795,185.240 1374.651,201.924 1377.524,220.811 C1382.617,254.296 1370.937,262.287 1350.902,291.641 C1328.679,324.201 1289.752,343.284 1260.167,352.681 C1279.301,352.430 1295.510,352.134 1304.876,351.849 C1340.955,350.753 1346.205,320.996 1346.205,320.996 C1346.205,320.996 1376.455,368.662 1413.238,369.800 C1450.21,370.938 1106.295,365.873 1106.295,365.873 ZM1248.228,208.840 C1223.107,241.938 1225.969,272.177 1247.763,295.654 C1225.153,271.840 1190.439,271.882 1165.649,295.624 C1190.869,272.400 1192.351,240.523 1166.114,208.811 C1191.521,240.518 1223.914,241.539 1248.228,208.840 ZM1149.26,315.393 C1137.82,296.80 1113.676,291.351 1093.679,304.120 C1113.894,291.763 1119.306,270.260 1106.10,245.72 C1118.747,270.143 1140.441,275.278 1161.357,256.345 C1139.842,275.438 1137.585,296.421 1149.26,315.393 ZM1063.999,394.0 L1045.516,381.985 C1018.554,391.325 1005.207,435.992 1005.207,435.992 L1004.934,355.607 L983.999,341.999 L958.999,344.999 L982.0,295.999 L1004.824,323.278 L1004.18,85.681 C983.144,85.325 960.855,84.900 946.367,84.617 C947.103,197.902 948.502,469.852 948.502,469.852 L920.276,499.999 C920.276,499.999 918.772,359.871 918.113,263.261 C917.453,166.652 916.0,97.714 916.0,97.714 C916.0,97.714 945.773,74.100 945.934,37.980 C945.967,30.394 946.100,45.49 946.289,72.933 C962.161,72.49 999.692,69.943 1011.482,69.133 C1026.576,68.97 1028.773,39.981 1028.773,39.981 C1028.773,39.981 1041.428,85.19 1056.817,86.95 C1062.466,86.489 1046.944,86.353 1025.44,86.22 C1030.210,86.286 1036.366,86.485 1043.637,86.532 C1032.840,87.566 1032.323,94.308 1031.495,124.231 C1031.709,157.329 1034.997,291.472 1036.275,355.538 C1036.286,355.857 1036.111,357.915 1036.161,360.729 L1063.999,394.0 ZM1053.3,86.518 C1049.679,86.553 1046.596,86.551 1043.637,86.532 C1046.156,86.291 1049.232,86.359 1053.3,86.518 ZM877.917,75.577 C871.604,77.531 871.62,82.873 870.302,96.534 C870.552,115.765 874.392,193.703 875.883,230.925 C875.932,231.627 872.877,246.772 892.627,245.533 C857.152,248.442 839.604,277.670 839.604,277.670 L839.381,244.953 C815.256,244.497 787.562,243.934 787.562,243.934 L776.811,231.542 C776.811,231.542 785.640,238.18 790.108,238.716 C794.118,239.343 825.600,239.12 839.338,238.630 L838.222,75.157 C813.165,74.859 785.981,74.496 768.506,74.256 C768.695,94.683 768.922,121.401 769.160,150.654 C781.712,150.596 796.360,150.336 802.43,150.98 C812.169,149.673 813.642,138.141 813.642,138.141 C813.642,138.141 822.133,156.614 832.457,157.55 C839.484,157.355 797.34,156.542 769.204,155.991 C769.878,239.88 770.634,340.452 770.902,376.634 C791.970,359.524 813.908,341.49 822.786,332.985 C840.669,316.743 815.752,279.594 815.752,279.594 C815.752,279.594 859.418,336.573 879.822,323.109 C862.466,334.927 729.0,425.999 729.0,425.999 L681.991,410.67 C681.991,410.67 714.10,416.669 724.24,412.188 C726.180,411.224 731.158,407.754 737.815,402.747 C737.345,371.59 736.89,284.426 735.470,220.800 C734.699,141.551 732.999,85.0 732.999,85.0 C732.999,85.0 767.811,65.629 767.999,35.999 C768.39,29.776 768.194,41.798 768.415,64.672 C786.973,63.947 830.856,62.218 844.641,61.554 C862.290,60.704 864.858,37.640 864.858,37.640 C864.858,37.640 877.364,68.862 893.362,74.586 C894.38,74.597 894.700,74.608 895.418,74.623 C894.752,74.626 894.130,74.627 893.477,74.629 C894.844,75.107 896.237,75.399 897.649,75.468 C902.614,75.712 893.580,75.709 877.917,75.577 ZM880.0,322.999 C879.942,323.39 879.881,323.71 879.822,323.109 C882.131,321.537 882.386,321.367 880.0,322.999 ZM643.668,414.380 C641.526,408.927 637.459,402.76 637.459,402.76 L623.154,386.814 L610.87,384.904 L631.511,359.767 C631.511,359.767 633.615,364.170 639.207,371.593 C644.799,379.16 657.448,395.626 657.235,410.738 C657.21,425.850 645.255,439.328 645.255,439.328 C646.877,427.663 649.575,429.415 643.668,414.380 ZM615.669,195.257 C620.410,195.539 629.913,195.958 645.167,196.5 C636.126,196.416 635.693,199.96 634.999,210.999 C635.179,224.164 637.930,277.518 639.0,303.0 C639.34,303.480 636.845,313.847 651.0,313.0 C625.575,314.991 613.0,335.0 613.0,335.0 L612.840,312.602 C595.549,312.290 575.703,311.905 575.703,311.905 L567.998,303.422 C567.998,303.422 574.325,307.855 577.528,308.333 C580.401,308.762 602.963,308.535 612.809,308.274 L612.1,195.181 C594.346,194.815 575.347,194.403 562.761,194.127 C562.872,205.137 562.989,217.258 563.107,229.553 C571.600,229.498 580.876,229.335 584.647,229.184 C591.904,228.893 592.960,220.999 592.960,220.999 C592.960,220.999 599.45,233.645 606.444,233.947 C611.312,234.145 583.48,233.631 563.142,233.257 C563.273,247.26 563.402,260.893 563.518,273.557 C572.167,273.506 581.789,273.339 585.647,273.184 C592.904,272.893 593.960,264.999 593.960,264.999 C593.960,264.999 600.45,277.645 607.444,277.947 C612.361,278.147 583.484,277.621 563.552,277.246 C563.806,304.894 563.992,325.931 563.992,325.931 C563.992,325.931 543.163,337.827 539.693,358.408 C540.947,359.443 542.650,360.762 544.858,362.288 C550.288,366.40 562.528,374.402 566.0,384.999 C569.471,395.597 565.0,407.999 565.0,407.999 C563.272,399.448 565.455,399.983 557.999,391.0 C555.296,387.742 550.999,383.999 550.999,383.999 L537.999,377.0 L529.0,379.0 L537.0,356.0 C537.0,356.0 537.722,356.751 539.244,358.34 C539.201,340.874 538.974,299.557 538.673,269.165 L537.998,268.422 C537.998,268.422 538.251,268.598 538.670,268.879 C538.590,260.780 538.504,253.464 538.416,247.610 C537.861,210.984 522.554,215.316 530.64,211.269 C533.745,209.285 541.536,203.471 548.522,193.812 C548.459,193.811 548.425,193.810 548.425,193.810 L534.996,176.844 C534.996,176.844 546.25,185.711 551.606,186.666 C551.928,186.722 552.407,186.771 552.998,186.815 C558.225,177.508 562.182,165.619 562.165,151.118 C562.150,138.58 562.384,157.257 562.690,187.106 C579.219,187.289 608.580,186.804 618.42,186.369 C630.691,185.787 632.531,169.998 632.531,169.998 C632.531,169.998 643.136,195.290 656.31,195.894 C661.824,196.165 640.697,195.772 615.669,195.257 ZM652.999,196.0 C650.219,196.14 647.641,196.13 645.167,196.5 C647.273,195.910 649.846,195.937 652.999,196.0 ZM490.8,224.953 C490.5,224.968 490.2,224.984 489.999,224.999 C489.210,229.407 487.874,240.749 484.848,252.614 C491.334,253.198 499.125,254.647 506.0,258.0 C516.903,263.317 523.301,269.216 524.0,273.999 C525.238,282.482 527.351,286.840 519.999,293.999 C503.717,309.859 484.545,311.756 495.0,309.0 C505.454,306.243 511.165,286.150 503.999,273.999 C500.228,267.604 491.285,261.980 483.659,258.85 C484.200,292.75 484.992,350.6 484.992,350.6 C484.992,350.6 461.496,358.699 460.251,373.599 C460.243,362.893 459.873,319.45 459.421,299.490 C457.620,301.450 455.804,303.293 453.999,305.0 C436.11,322.8 411.0,342.999 411.0,342.999 C411.4,342.939 428.190,304.661 440.355,279.129 C451.540,255.650 453.825,233.557 453.825,233.557 L455.285,224.517 C434.884,224.256 418.593,224.40 418.593,224.40 L404.164,213.219 C404.164,213.219 416.14,218.874 422.10,219.484 C425.86,219.796 440.215,219.836 456.55,219.750 L462.614,179.147 L447.255,165.742 L503.290,163.135 C503.290,163.135 494.769,200.834 491.80,219.349 C491.930,219.331 492.721,219.312 493.394,219.294 C506.984,218.923 508.962,208.852 508.962,208.852 C508.962,208.852 520.356,224.984 534.212,225.369 C540.500,225.544 517.264,225.286 490.8,224.953 ZM460.199,375.188 C460.185,374.650 460.207,374.121 460.251,373.599 C460.252,375.985 460.236,376.732 460.199,375.188 ZM320.331,124.114 C355.186,124.875 393.434,125.783 368.999,126.0 C325.224,126.388 306.483,166.410 306.9,167.952 C306.147,166.520 305.730,129.173 283.612,123.679 C204.98,122.718 106.441,121.442 72.759,120.999 C71.102,154.267 12.0,190.999 12.0,190.999 C12.0,190.999 39.380,131.914 37.593,103.537 L21.709,91.624 L19.999,91.0 L20.548,90.754 L18.990,89.585 C18.990,89.585 19.734,89.940 21.31,90.538 L57.999,73.999 L71.118,107.732 C90.873,109.415 237.849,108.193 276.707,107.132 C315.959,106.60 321.670,76.973 321.670,76.973 C321.670,76.973 354.581,123.566 394.599,124.678 C408.424,125.63 372.835,124.723 320.331,124.114 ZM36.638,97.79 L31.993,95.382 C33.474,96.9 35.57,96.663 36.680,97.325 C36.666,97.242 36.652,97.161 36.638,97.79 ZM194.173,104.934 C181.56,76.111 149.618,65.386 119.847,79.448 C149.847,65.994 161.28,37.254 147.66,0.71 C160.279,36.992 189.288,47.971 221.392,25.557 C188.434,48.86 181.691,76.672 194.173,104.934 ZM153.999,180.0 C153.999,180.0 145.517,198.819 138.0,214.0 C130.482,229.180 99.37,271.558 73.999,284.0 C48.962,296.441 19.0,295.999 19.0,295.999 C19.0,295.999 37.367,292.844 56.999,270.999 C76.632,249.155 79.999,243.0 79.999,243.0 L104.999,185.999 L92.0,166.999 L153.999,180.0 ZM207.999,186.999 C207.999,186.999 250.471,181.840 277.0,196.0 C295.985,206.133 305.645,214.494 306.861,223.610 C309.17,239.775 301.799,243.355 289.0,256.999 C260.647,287.223 193.796,290.252 212.0,285.0 C230.203,279.747 270.477,251.153 258.0,227.999 C245.522,204.846 207.999,186.999 207.999,186.999 ZM51.533,448.680 C61.246,449.667 112.566,449.712 162.693,449.371 C162.647,437.250 162.98,396.663 161.436,378.469 C160.599,355.458 137.512,358.180 148.840,355.637 C159.257,353.299 191.489,342.502 196.561,323.122 C143.950,322.463 92.383,321.780 92.383,321.780 L65.806,301.848 C65.806,301.848 87.632,312.265 98.677,313.387 C109.722,314.510 205.129,313.721 230.162,313.38 C255.195,312.354 258.837,293.805 258.837,293.805 C258.837,293.805 279.825,323.519 305.346,324.228 C318.922,324.605 257.794,323.889 197.597,323.135 C198.295,347.351 199.836,419.341 199.999,426.999 L200.0,426.999 L200.0,427.16 C200.9,427.440 200.14,427.674 200.14,427.674 C200.14,427.674 200.1,427.677 200.0,427.678 L200.0,449.46 C224.721,448.782 246.66,448.449 257.707,448.132 C296.959,447.60 302.670,417.973 302.670,417.973 C302.670,417.973 335.581,464.566 375.599,465.678 C415.617,466.791 41.663,461.840 41.663,461.840 L0.9,430.585 C0.9,430.585 34.214,446.919 51.533,448.680 ZM163.0,449.369 L163.0,449.115 C162.975,449.199 162.967,449.286 162.945,449.370 C162.963,449.370 162.981,449.369 163.0,449.369 ZM425.999,418.0 C439.282,424.551 451.171,397.220 451.165,373.689 C451.162,359.925 458.496,389.685 458.0,404.999 C457.503,420.314 449.999,433.999 449.999,433.999 L443.999,441.0 L440.0,448.999 C440.0,448.999 430.728,435.872 422.0,441.0 C428.131,434.408 433.822,428.703 425.999,418.0 ZM574.999,431.999 C610.13,428.708 579.999,387.999 579.999,387.999 C579.999,387.999 613.99,394.382 617.999,417.0 C622.900,439.617 602.218,452.803 585.0,461.0 C567.781,469.196 514.939,457.223 501.0,438.0 C487.60,418.776 484.999,362.999 484.999,362.999 C484.999,362.999 501.321,402.134 533.999,421.0 C548.173,429.182 548.315,434.508 574.999,431.999 ZM1114.918,426.588 C1148.884,440.17 1185.291,408.658 1189.534,377.907 C1192.17,359.919 1206.41,401.497 1201.955,421.327 C1197.870,441.157 1175.536,456.291 1175.536,456.291 L1158.391,463.240 L1146.358,472.228 C1146.358,472.228 1124.198,451.676 1100.171,455.178 C1117.590,448.811 1133.683,443.441 1114.918,426.588 ZM1303.652,407.143 C1314.918,416.660 1340.400,437.954 1339.970,457.328 C1339.539,476.701 1315.836,493.980 1315.836,493.980 C1319.103,479.26 1324.538,481.272 1312.638,461.996 C1308.323,455.6 1300.129,446.223 1300.129,446.223 L1271.312,426.656 L1244.987,424.208 L1288.147,391.982 C1288.147,391.982 1292.386,397.627 1303.652,407.143 Z"/>
</svg>