<svg 
 xmlns="http://www.w3.org/2000/svg"
 xmlns:xlink="http://www.w3.org/1999/xlink"
 width="1402.5px" height="516.5px">
<path fill-rule="evenodd"  stroke-width="1px" stroke-linecap="butt" stroke-linejoin="miter" fill="#993333"
 d="M1090.795,379.373 L1052.490,347.398 C1052.490,347.398 1083.948,364.109 1099.867,365.910 C1109.661,367.18 1165.474,366.965 1215.379,366.506 C1213.434,367.548 1211.578,368.440 1209.843,369.155 C1194.961,375.289 1215.172,375.548 1244.667,366.181 C1263.801,365.930 1280.10,365.634 1289.376,365.349 C1325.455,364.253 1330.705,334.496 1330.705,334.496 C1330.705,334.496 1360.955,382.162 1397.738,383.300 C1434.521,384.438 1090.795,379.373 1090.795,379.373 ZM1281.104,247.83 C1258.181,199.816 1194.64,165.462 1194.64,165.462 C1194.64,165.462 1264.276,151.561 1309.751,179.60 C1342.295,198.740 1359.151,215.424 1362.24,234.310 C1367.117,267.796 1355.437,275.787 1335.402,305.141 C1313.179,337.701 1274.252,356.784 1244.667,366.181 C1235.439,366.302 1225.533,366.412 1215.379,366.506 C1246.854,349.636 1302.693,291.600 1281.104,247.83 ZM1232.728,222.340 C1207.607,255.438 1210.469,285.677 1232.263,309.154 C1209.653,285.340 1174.939,285.382 1150.149,309.124 C1175.369,285.900 1176.851,254.23 1150.614,222.311 C1176.21,254.18 1208.414,255.40 1232.728,222.340 ZM1133.526,328.893 C1121.582,309.580 1098.176,304.851 1078.179,317.620 C1098.394,305.263 1103.806,283.760 1090.510,258.572 C1103.247,283.643 1124.941,288.778 1145.857,269.845 C1124.342,288.938 1122.85,309.921 1133.526,328.893 ZM989.324,336.778 L988.518,99.181 C995.726,99.305 1002.758,99.419 1009.244,99.518 C1014.451,99.789 1020.703,99.991 1028.84,100.39 C1017.342,101.92 1016.822,107.860 1015.995,137.731 C1016.209,170.829 1019.497,304.972 1020.775,369.38 C1020.786,369.357 1020.614,371.420 1020.663,374.231 L989.324,336.778 ZM1020.663,374.231 L1048.500,407.500 L1030.16,395.485 C1031.665,394.914 1033.363,394.468 1035.114,394.180 C1022.669,395.748 1020.800,382.60 1020.663,374.231 ZM989.707,449.492 L989.434,369.107 L1030.16,395.485 C1003.54,404.825 989.707,449.492 989.707,449.492 ZM968.499,355.500 L943.499,358.500 L966.500,309.500 L989.324,336.778 L989.434,369.107 L968.499,355.500 ZM988.518,99.181 C967.644,98.825 945.355,98.400 930.867,98.117 C930.840,94.9 930.814,90.103 930.789,86.433 C946.661,85.549 984.192,83.443 995.982,82.633 C1011.76,81.597 1013.273,53.481 1013.273,53.481 C1013.273,53.481 1025.928,98.519 1041.317,99.595 C1046.992,99.991 1031.303,99.852 1009.244,99.518 C994.902,98.771 988.512,97.503 988.512,97.503 L988.518,99.181 ZM914.184,96.585 L915.39,97.804 C915.39,97.804 921.231,97.929 930.867,98.117 C931.603,211.396 933.2,483.352 933.2,483.352 L904.776,513.500 C904.776,513.500 903.272,373.371 902.613,276.761 C901.953,180.152 900.499,111.214 900.499,111.214 C900.499,111.214 930.273,87.600 930.434,51.480 C930.467,43.894 930.600,58.551 930.789,86.433 C926.339,86.681 923.592,86.833 923.592,86.833 L914.184,96.585 ZM1037.504,100.18 C1034.178,100.53 1031.43,100.58 1028.84,100.39 C1030.613,99.791 1033.704,99.858 1037.504,100.18 ZM862.426,89.77 C864.131,88.550 866.252,88.265 868.918,88.135 C871.789,88.145 874.817,88.143 877.982,88.131 C879.347,88.608 880.738,88.899 882.149,88.968 C887.113,89.212 878.84,89.209 862.426,89.77 ZM868.918,88.135 C836.559,88.31 822.709,86.662 822.709,86.662 L822.722,88.657 C797.665,88.359 770.481,87.996 753.6,87.756 C752.975,84.386 752.944,81.182 752.915,78.172 C771.473,77.447 815.356,75.718 829.141,75.55 C846.790,74.205 849.358,51.140 849.358,51.140 C849.358,51.140 861.861,82.353 877.856,88.83 C874.345,88.22 871.400,88.15 868.918,88.135 ZM854.802,110.34 C855.52,129.265 858.892,207.203 860.383,244.425 C860.432,245.127 857.377,260.271 877.127,259.33 C841.652,261.942 824.104,291.170 824.104,291.170 L823.881,258.453 C844.782,258.847 863.5,259.160 858.213,258.956 C847.889,258.515 839.398,240.42 839.398,240.42 C839.398,240.42 837.925,251.574 827.798,251.999 C826.760,252.42 825.408,252.87 823.838,252.130 L822.722,88.657 C837.525,88.833 851.566,88.986 862.426,89.77 C856.107,91.30 855.562,96.368 854.802,110.34 ZM772.62,257.434 L761.311,245.42 C761.311,245.42 770.140,251.518 774.608,252.216 C778.618,252.843 810.100,252.512 823.838,252.130 L823.881,258.453 C799.756,257.997 772.62,257.434 772.62,257.434 ZM733.500,86.499 L734.499,87.500 C734.499,87.500 741.739,87.602 753.6,87.756 C753.195,108.185 753.422,134.896 753.660,164.154 C743.846,164.199 735.313,164.122 733.353,163.815 C728.885,163.117 720.55,156.641 720.55,156.641 L730.806,169.33 C730.806,169.33 740.649,169.233 753.704,169.491 C754.378,252.596 755.135,353.961 755.402,390.134 C743.169,400.69 731.234,409.539 722.315,416.247 C721.845,384.569 720.589,297.934 719.970,234.300 C719.199,155.51 717.500,98.500 717.500,98.500 C717.500,98.500 752.311,79.129 752.500,49.499 C752.539,43.276 752.694,55.300 752.915,78.172 C747.712,78.375 744.499,78.499 744.499,78.499 L733.500,86.499 ZM786.543,163.598 C796.669,163.173 798.142,151.641 798.142,151.641 C798.142,151.641 806.633,170.114 816.957,170.555 C823.984,170.855 781.534,170.42 753.704,169.491 C753.689,167.703 753.675,165.924 753.660,164.154 C766.212,164.96 780.860,163.836 786.543,163.598 ZM755.503,403.769 C755.503,403.769 755.467,398.829 755.402,390.134 C776.470,373.24 798.408,354.549 807.286,346.485 C825.169,330.243 800.252,293.94 800.252,293.94 C800.252,293.94 843.919,350.74 864.323,336.609 C847.80,348.350 713.499,439.499 713.499,439.499 L666.491,423.567 C666.491,423.567 698.510,430.169 708.524,425.688 C710.680,424.724 715.658,421.254 722.315,416.247 C722.431,424.21 722.500,428.499 722.500,428.499 L755.503,403.769 ZM864.499,336.500 C864.442,336.539 864.381,336.570 864.323,336.609 C866.606,335.54 866.876,334.873 864.499,336.500 ZM879.918,88.123 C879.261,88.126 878.627,88.128 877.982,88.131 C877.939,88.116 877.898,88.98 877.856,88.83 C878.523,88.95 879.209,88.108 879.918,88.123 ZM628.168,427.880 C626.26,422.427 621.959,415.576 621.959,415.576 L607.654,400.314 L594.587,398.404 L616.11,373.267 C616.11,373.267 618.115,377.670 623.707,385.93 C629.299,392.516 641.948,409.126 641.735,424.238 C641.521,439.350 629.755,452.828 629.755,452.828 C631.377,441.163 634.75,442.915 628.168,427.880 ZM629.667,209.505 C631.773,209.410 634.346,209.437 637.499,209.499 C634.719,209.514 632.141,209.513 629.667,209.505 ZM619.500,224.499 C619.679,237.664 622.431,291.18 623.499,316.499 C623.534,316.980 621.345,327.347 635.500,326.500 C610.75,328.491 597.500,348.500 597.500,348.500 L597.340,326.102 C612.319,326.372 625.379,326.587 621.944,326.447 C614.545,326.145 608.460,313.499 608.460,313.499 C608.460,313.499 607.404,321.393 600.147,321.684 C599.403,321.714 598.434,321.744 597.309,321.774 L596.499,208.499 C596.499,208.499 606.471,209.434 629.667,209.505 C620.626,209.916 620.193,212.596 619.500,224.499 ZM560.203,325.405 L552.498,316.922 C552.498,316.922 558.825,321.355 562.28,321.833 C564.901,322.262 587.463,322.35 597.309,321.774 L597.340,326.102 C580.50,325.790 560.203,325.405 560.203,325.405 ZM548.52,290.746 C548.41,289.528 548.30,288.299 548.18,287.57 C556.667,287.6 566.289,286.839 570.147,286.684 C577.404,286.393 578.460,278.499 578.460,278.499 C578.460,278.499 584.545,291.145 591.944,291.447 C596.861,291.647 567.984,291.121 548.52,290.746 ZM532.28,286.833 C529.457,286.449 524.879,283.521 523.170,282.379 C523.90,274.279 523.4,266.964 522.916,261.110 C522.361,224.484 507.54,228.816 514.564,224.769 C522.75,220.722 546.707,200.766 546.665,164.618 C546.644,145.973 547.130,193.72 547.607,243.53 C539.752,243.104 532.566,243.63 531.28,242.833 C527.825,242.355 521.498,237.922 521.498,237.922 L529.203,246.405 C529.203,246.405 537.293,246.562 547.642,246.757 C547.773,260.526 547.902,274.393 548.18,287.57 C540.395,287.102 533.528,287.57 532.28,286.833 ZM548.52,290.746 C548.306,318.393 548.492,339.431 548.492,339.431 C548.492,339.431 527.659,351.324 524.188,371.904 C524.33,371.776 523.884,371.652 523.744,371.534 C523.701,354.368 523.474,313.56 523.173,282.665 L530.203,290.405 C530.203,290.405 537.989,290.556 548.52,290.746 ZM523.699,378.279 C523.736,380.661 523.752,379.508 523.751,375.827 C523.823,374.486 523.973,373.179 524.188,371.904 C525.442,372.939 527.147,374.260 529.358,375.788 C534.788,379.540 547.28,387.902 550.499,398.499 C553.971,409.97 549.499,421.500 549.499,421.500 C547.772,412.948 549.955,413.483 542.499,404.500 C539.796,401.242 535.500,397.499 535.500,397.499 L522.500,390.499 L513.500,392.499 L521.499,369.499 C521.499,369.499 522.222,370.251 523.744,371.534 C523.748,373.206 523.750,374.646 523.751,375.827 C523.707,376.633 523.685,377.449 523.699,378.279 ZM522.498,281.922 C522.498,281.922 522.751,282.98 523.170,282.379 C523.171,282.474 523.172,282.570 523.173,282.665 L522.498,281.922 ZM569.147,242.684 C576.404,242.393 577.460,234.499 577.460,234.499 C577.460,234.499 583.545,247.145 590.944,247.447 C595.812,247.645 567.548,247.131 547.642,246.757 C547.630,245.521 547.618,244.286 547.607,243.53 C556.101,242.998 565.376,242.835 569.147,242.684 ZM474.508,238.453 C474.785,236.906 475.150,235.7 475.580,232.849 C476.430,232.831 477.221,232.812 477.894,232.794 C491.484,232.423 493.462,222.352 493.462,222.352 C493.462,222.352 504.856,238.484 518.712,238.869 C525.0,239.44 501.764,238.786 474.508,238.453 ZM474.499,238.500 C473.710,242.907 472.375,254.249 469.349,266.115 C468.916,266.76 468.490,266.40 468.69,266.9 C467.825,251.158 467.652,242.880 467.665,250.189 C467.676,256.43 466.146,261.241 463.728,265.788 C458.794,265.658 455.499,265.975 455.499,265.975 C455.499,265.975 458.169,266.946 462.22,268.660 C454.297,280.531 440.790,287.355 435.564,289.180 C428.54,291.804 443.361,288.996 443.916,312.737 C443.918,312.819 443.919,312.907 443.921,312.990 C442.120,314.950 440.304,316.793 438.499,318.500 C420.511,335.508 395.499,356.500 395.499,356.500 C395.504,356.439 412.690,318.161 424.855,292.629 C436.40,269.150 438.325,247.57 438.325,247.57 L439.785,238.17 C450.800,238.158 463.9,238.312 474.508,238.453 C474.505,238.468 474.502,238.484 474.499,238.500 ZM467.878,271.441 C467.971,271.488 468.65,271.537 468.159,271.585 C468.700,305.575 469.492,363.506 469.492,363.506 C469.492,363.506 445.996,372.199 444.751,387.99 C444.743,376.393 444.373,332.545 443.921,312.990 C452.253,303.925 460.282,292.220 465.500,278.500 C466.374,276.199 467.163,273.829 467.878,271.441 ZM469.349,266.115 C475.836,266.699 483.626,268.147 490.499,271.499 C501.403,276.817 507.801,282.716 508.499,287.500 C509.738,295.982 511.850,300.340 504.500,307.500 C488.216,323.359 469.45,325.256 479.499,322.499 C489.954,319.743 495.665,299.650 488.500,287.500 C484.728,281.104 475.785,275.480 468.159,271.585 C468.154,271.235 468.148,270.887 468.142,270.542 C468.572,269.66 468.974,267.587 469.349,266.115 ZM467.878,271.441 C465.770,270.372 463.776,269.440 462.22,268.660 C462.626,267.731 463.202,266.778 463.728,265.788 C465.65,265.823 466.525,265.893 468.69,266.9 C468.93,267.460 468.117,268.974 468.142,270.542 C468.55,270.842 467.967,271.142 467.878,271.441 ZM444.699,388.688 C444.685,388.150 444.707,387.621 444.751,387.99 C444.752,389.485 444.736,390.232 444.699,388.688 ZM403.93,237.540 L388.664,226.719 C388.664,226.719 400.514,232.374 406.510,232.984 C409.586,233.296 424.715,233.336 440.555,233.250 L439.785,238.17 C419.384,237.756 403.93,237.540 403.93,237.540 ZM447.114,192.647 L431.755,179.242 L487.790,176.635 C487.790,176.635 479.269,214.334 475.580,232.849 C468.69,233.13 454.66,233.177 440.555,233.250 L447.114,192.647 ZM325.205,125.117 C360.59,125.878 398.302,126.786 373.869,127.3 C330.94,127.391 311.354,167.420 310.880,168.960 C311.18,167.532 310.592,130.123 288.412,124.681 C208.914,123.720 111.307,122.444 77.635,122.2 C75.978,155.274 16.877,192.11 16.877,192.11 C16.877,192.11 44.257,132.918 42.470,104.538 L26.586,92.623 L24.877,91.998 L25.426,91.753 L23.867,90.583 C23.867,90.583 24.612,90.938 25.908,91.537 L62.876,74.996 L75.994,108.732 C95.749,110.416 242.722,109.194 281.579,108.132 C320.830,107.60 326.541,77.970 326.541,77.970 C326.541,77.970 359.451,124.569 399.468,125.681 C413.293,126.66 377.706,125.726 325.205,125.117 ZM41.523,98.81 L36.870,96.381 C38.354,97.10 39.941,97.666 41.569,98.329 C41.555,98.248 41.536,98.162 41.523,98.81 ZM310.880,168.960 C310.877,168.991 310.874,169.11 310.871,169.8 C310.868,169.5 310.872,168.987 310.880,168.960 ZM199.47,105.935 C185.930,77.108 154.492,66.381 124.723,80.445 C154.722,66.990 165.903,38.246 151.940,1.58 C165.153,37.984 194.161,48.965 226.265,26.548 C193.308,49.79 186.565,77.669 199.47,105.935 ZM142.874,215.14 C135.358,230.196 103.913,272.580 78.876,285.22 C53.839,297.465 23.877,297.24 23.877,297.24 C23.877,297.24 25.309,296.777 27.797,295.948 C25.305,296.45 23.877,296.24 23.877,296.24 C23.877,296.24 42.244,292.868 61.876,271.21 C81.508,249.173 84.876,243.17 84.876,243.17 L109.608,186.619 L96.875,168.8 L97.674,168.175 L96.875,167.8 L158.874,180.9 C158.874,180.9 158.727,180.334 158.461,180.923 L158.874,181.9 C158.874,181.9 150.391,199.831 142.874,215.14 ZM212.873,188.10 C212.873,188.10 255.343,182.850 281.871,197.11 C300.856,207.146 310.516,215.508 311.732,224.626 C313.888,240.792 306.671,244.373 293.871,258.19 C265.519,288.246 198.670,291.276 216.873,286.22 C235.76,280.769 275.349,252.172 262.872,229.15 C250.395,205.859 212.873,188.10 212.873,188.10 ZM167.567,450.415 C167.521,438.296 166.973,397.702 166.311,379.503 C165.474,356.490 142.387,359.212 153.715,356.669 C164.131,354.331 196.363,343.532 201.435,324.150 C148.825,323.490 97.259,322.808 97.259,322.808 L70.682,302.873 C70.682,302.873 92.508,313.291 103.553,314.414 C114.598,315.537 210.3,314.748 235.35,314.64 C260.67,313.381 263.709,294.829 263.709,294.829 C263.709,294.829 284.697,324.546 310.218,325.256 C323.793,325.633 262.667,324.916 202.471,324.163 C203.168,348.369 204.709,420.380 204.873,428.40 L204.873,428.40 L204.873,428.56 C204.882,428.480 204.887,428.715 204.887,428.715 C204.887,428.715 204.874,428.718 204.873,428.718 L204.873,450.90 C229.594,449.825 250.939,449.493 262.579,449.175 C301.831,448.103 307.542,419.13 307.542,419.13 C307.542,419.13 340.451,465.611 380.468,466.724 C420.486,467.836 46.540,462.885 46.540,462.885 L4.868,431.626 C4.868,431.626 39.91,447.962 56.410,449.723 C66.123,450.711 117.441,450.755 167.567,450.415 ZM167.874,450.413 L167.874,450.159 C167.850,450.242 167.842,450.329 167.820,450.413 C167.838,450.413 167.856,450.413 167.874,450.413 ZM410.500,431.499 C423.782,438.51 435.671,410.720 435.665,387.189 C435.662,373.425 442.996,403.185 442.500,418.500 C442.3,433.814 434.500,447.500 434.500,447.500 L428.499,454.500 L424.499,462.499 C424.499,462.499 415.228,449.372 406.499,454.500 C412.631,447.908 418.322,442.203 410.500,431.499 ZM559.499,445.499 C594.513,442.208 564.500,401.500 564.500,401.500 C564.500,401.500 597.599,407.882 602.500,430.500 C607.400,453.117 586.718,466.303 569.500,474.500 C552.281,482.696 499.439,470.723 485.500,451.499 C471.560,432.276 469.500,376.500 469.500,376.500 C469.500,376.500 485.821,415.634 518.500,434.499 C532.673,442.682 532.815,448.8 559.499,445.499 ZM1099.418,440.88 C1133.384,453.517 1169.791,422.158 1174.34,391.407 C1176.517,373.419 1190.541,414.996 1186.455,434.827 C1182.370,454.657 1160.36,469.791 1160.36,469.791 L1142.891,476.740 L1130.858,485.728 C1130.858,485.728 1108.698,465.176 1084.671,468.677 C1102.90,462.311 1118.183,456.941 1099.418,440.88 ZM1288.152,420.643 C1299.418,430.160 1324.900,451.454 1324.470,470.828 C1324.39,490.201 1300.336,507.480 1300.336,507.480 C1303.603,492.526 1309.38,494.772 1297.138,475.496 C1292.823,468.506 1284.629,459.723 1284.629,459.723 L1255.812,440.156 L1229.487,437.708 L1272.647,405.482 C1272.647,405.482 1276.886,411.127 1288.152,420.643 Z"/>
</svg>